# xmcd CD database file
#
# Track frame offsets:
#	150
#	13980
#	26532
#	51032
#	79602
#	106007
#	139297
#	169195
#	189147
#	205227
#	232470
#	258067
#	284860
#	313967
#	330065
#
# Disc length: 4607 seconds
#
# Revision: 7
# Processed by: cddbd v1.5.2PL0 Copyright (c) Steve Scherf et al.
# Submitted via: CDex 1.51
#
DISCID=d011fd0f
DTITLE=Anthrax - The Greater of Two Evils
DYEAR=2004
DGENRE=Thrash Metal
TTITLE0=Deathrider
TTITLE1=Metal Thrashing Mad
TTITLE2=Caught In A Mosh
TTITLE3=A.I.R.
TTITLE4=Among The Living
TTITLE5=Keep It In The Family
TTITLE6=Indians
TTITLE7=Madhouse
TTITLE8=Panic
TTITLE9=I Am The Law
TTITLE10=Belly Of The Beast
TTITLE11=Efilnikufesin (N.F.L.)
TTITLE12=Be All End All
TTITLE13=Gung-Ho
TTITLE14=Anthrax [Bonus Track]
EXTD=YEAR: 2004
EXTT0=
EXTT1=
EXTT2=
EXTT3=
EXTT4=
EXTT5=
EXTT6=
EXTT7=
EXTT8=
EXTT9=
EXTT10=
EXTT11=
EXTT12=
EXTT13=
EXTT14=
PLAYORDER=
